<?xml version="1.0" standalone="no"?><!DOCTYPE svg PUBLIC "-//W3C//DTD SVG 1.1//EN" "http://www.w3.org/Graphics/SVG/1.1/DTD/svg11.dtd"><svg class="icon" width="200px" height="200px" viewBox="0 0 1024 1024" version="1.1" xmlns="http://www.w3.org/2000/svg"><path d="M512 64C264.96 64 64 264.96 64 512s200.96 448 448 448 448-200.96 448-448S759.04 64 512 64z m347.52 320H700.48c-12.16-72.32-32.64-138.88-58.88-194.56 91.84 31.36 167.36 102.4 217.92 194.56zM512 137.6c43.52 0 99.84 96 130.56 246.4H381.44C412.16 233.6 468.48 137.6 512 137.6zM142.08 614.4C133.76 581.12 128 547.2 128 512s5.76-69.12 14.08-102.4h169.6c-3.2 32-4.8 65.92-4.8 102.4s1.6 70.4 4.8 102.4H142.08zM164.48 640H323.52c12.16 72.32 32.64 138.88 58.88 194.56C291.2 803.2 215.04 732.16 164.48 640z m159.04-256H164.48c50.56-92.16 126.72-163.2 217.92-194.56C355.84 245.12 335.68 311.68 323.52 384z m188.48 502.4c-43.52 0-99.84-96-130.56-246.4h261.44C612.48 790.4 555.84 886.4 512 886.4z m140.16-320H371.84c-3.84-31.36-5.76-65.6-5.76-102.4s1.92-71.04 5.76-102.4h280.32c3.84 31.36 5.76 65.6 5.76 102.4s-1.92 71.04-5.76 102.4z m-9.92 268.16c26.24-55.68 46.4-122.24 58.88-194.56h159.04c-50.56 92.16-126.4 163.2-217.92 194.56zM712.32 614.4c3.2-32 4.8-65.92 4.8-102.4s-1.6-70.4-4.8-102.4h169.6c8.32 33.28 14.08 67.2 14.08 102.4s-5.76 69.12-14.08 102.4H712.32z" /></svg>
